<svg width="104" height="40" viewBox="0 0 104 40" fill="none" xmlns="http://www.w3.org/2000/svg">
<rect x="40" width="40" height="40" rx="20" transform="rotate(90 40 0)" fill="#E0EFF6"/>
<path fill-rule="evenodd" clip-rule="evenodd" d="M15.9785 20.0005C15.9785 19.882 16.0256 19.7683 16.1094 19.6845C16.1932 19.6007 16.3068 19.5536 16.4253 19.5536L24.4679 19.5536C24.5864 19.5536 24.7001 19.6007 24.7839 19.6845C24.8677 19.7683 24.9147 19.882 24.9147 20.0005C24.9147 20.119 24.8677 20.2326 24.7839 20.3164C24.7001 20.4002 24.5864 20.4473 24.4679 20.4473L16.4253 20.4473C16.3068 20.4473 16.1932 20.4002 16.1094 20.3164C16.0256 20.2326 15.9785 20.119 15.9785 20.0005Z" fill="#07484A"/>
<path fill-rule="evenodd" clip-rule="evenodd" d="M15.2153 20.317C15.1736 20.2755 15.1406 20.2262 15.1181 20.1719C15.0956 20.1176 15.084 20.0594 15.084 20.0007C15.084 19.9419 15.0956 19.8837 15.1181 19.8294C15.1406 19.7751 15.1736 19.7258 15.2153 19.6843L17.8961 17.0035C17.98 16.9196 18.0938 16.8724 18.2125 16.8724C18.3311 16.8724 18.4449 16.9196 18.5288 17.0035C18.6127 17.0874 18.6598 17.2012 18.6598 17.3198C18.6598 17.4385 18.6127 17.5522 18.5288 17.6361L16.1634 20.0007L18.5288 22.3652C18.6127 22.4491 18.6598 22.5629 18.6598 22.6815C18.6598 22.8002 18.6127 22.914 18.5288 22.9979C18.4449 23.0818 18.3311 23.1289 18.2125 23.1289C18.0938 23.1289 17.98 23.0818 17.8961 22.9979L15.2153 20.317Z" fill="#07484A"/>
<rect x="64" y="40" width="40" height="40" rx="20" transform="rotate(-90 64 40)" fill="#F9D9DA"/>
<path fill-rule="evenodd" clip-rule="evenodd" d="M88.0215 19.9995C88.0215 20.118 87.9744 20.2317 87.8906 20.3155C87.8068 20.3993 87.6932 20.4464 87.5747 20.4464L79.5321 20.4464C79.4136 20.4464 79.2999 20.3993 79.2161 20.3155C79.1323 20.2317 79.0853 20.118 79.0853 19.9995C79.0853 19.881 79.1323 19.7674 79.2161 19.6836C79.2999 19.5998 79.4136 19.5527 79.5321 19.5527L87.5747 19.5527C87.6932 19.5527 87.8068 19.5998 87.8906 19.6836C87.9744 19.7674 88.0215 19.881 88.0215 19.9995Z" fill="#07484A"/>
<path fill-rule="evenodd" clip-rule="evenodd" d="M88.7847 19.683C88.8264 19.7245 88.8594 19.7738 88.8819 19.8281C88.9044 19.8824 88.916 19.9406 88.916 19.9993C88.916 20.0581 88.9044 20.1163 88.8819 20.1706C88.8594 20.2249 88.8264 20.2742 88.7847 20.3157L86.1039 22.9965C86.02 23.0804 85.9062 23.1276 85.7875 23.1276C85.6689 23.1276 85.5551 23.0804 85.4712 22.9965C85.3873 22.9126 85.3402 22.7988 85.3402 22.6802C85.3402 22.5615 85.3873 22.4478 85.4712 22.3639L87.8366 19.9993L85.4712 17.6348C85.3873 17.5509 85.3402 17.4371 85.3402 17.3185C85.3402 17.1998 85.3873 17.086 85.4712 17.0021C85.5551 16.9182 85.6689 16.8711 85.7875 16.8711C85.9062 16.8711 86.02 16.9182 86.1039 17.0021L88.7847 19.683Z" fill="#07484A"/>
</svg>
