<svg width="15" height="8" viewBox="0 0 15 8" fill="none" xmlns="http://www.w3.org/2000/svg">
<path d="M7.48776 7.48776C7.23787 7.48825 6.9957 7.40122 6.80329 7.24178L0.386355 1.89434C0.167948 1.7128 0.0305994 1.45194 0.00452554 1.16914C-0.0215483 0.886339 0.0657882 0.604762 0.247322 0.386355C0.428855 0.167947 0.689716 0.0305994 0.972517 0.00452556C1.25532 -0.0215483 1.53689 0.0657877 1.7553 0.247321L7.48776 5.03863L13.2202 0.41844C13.3296 0.329602 13.4555 0.26326 13.5906 0.223227C13.7257 0.183194 13.8674 0.17026 14.0076 0.185168C14.1477 0.200076 14.2835 0.242531 14.4072 0.310095C14.5308 0.377658 14.6399 0.468998 14.7282 0.578863C14.8261 0.68883 14.9003 0.817838 14.9461 0.957806C14.9919 1.09777 15.0082 1.24569 14.9942 1.39227C14.9801 1.53886 14.9359 1.68097 14.8644 1.80969C14.7929 1.93841 14.6955 2.05097 14.5785 2.14032L8.16154 7.30595C7.96359 7.44019 7.72637 7.5042 7.48776 7.48776Z" fill="black"/>
</svg>
