<svg width="21" height="13" viewBox="0 0 21 13" fill="none" xmlns="http://www.w3.org/2000/svg">
<path fill-rule="evenodd" clip-rule="evenodd" d="M13.2688 12.7273C13.1824 12.641 13.1138 12.5386 13.067 12.4258C13.0202 12.313 12.9961 12.1921 12.9961 12.07C12.9961 11.9479 13.0202 11.8269 13.067 11.7142C13.1138 11.6014 13.1824 11.4989 13.2688 11.4127L18.1836 6.49976L13.2688 1.58683C13.0945 1.4125 12.9966 1.17607 12.9966 0.929542C12.9966 0.683012 13.0945 0.446579 13.2688 0.272256C13.4432 0.0979328 13.6796 -2.98767e-08 13.9261 -4.06528e-08C14.1727 -5.1429e-08 14.4091 0.0979328 14.5834 0.272256L20.1536 5.84247C20.2401 5.92871 20.3087 6.03116 20.3555 6.14394C20.4023 6.25673 20.4264 6.37764 20.4264 6.49976C20.4264 6.62187 20.4023 6.74278 20.3555 6.85557C20.3087 6.96836 20.2401 7.0708 20.1536 7.15704L14.5834 12.7273C14.4972 12.8137 14.3947 12.8823 14.2819 12.9291C14.1691 12.9759 14.0482 13 13.9261 13C13.804 13 13.6831 12.9759 13.5703 12.9291C13.4575 12.8823 13.3551 12.8137 13.2688 12.7273Z" fill="white"/>
<path fill-rule="evenodd" clip-rule="evenodd" d="M-4.05803e-08 6.49937C-5.13429e-08 6.25315 0.0978102 6.01701 0.271913 5.84291C0.446016 5.66881 0.68215 5.571 0.928369 5.571L17.639 5.571C17.8852 5.571 18.1214 5.6688 18.2955 5.84291C18.4696 6.01701 18.5674 6.25315 18.5674 6.49936C18.5674 6.74558 18.4696 6.98172 18.2955 7.15582C18.1214 7.32992 17.8852 7.42773 17.639 7.42773L0.928369 7.42773C0.68215 7.42773 0.446016 7.32992 0.271913 7.15582C0.0978102 6.98172 -2.98177e-08 6.74558 -4.05803e-08 6.49937Z" fill="white"/>
</svg>
