<svg width="196" height="27" viewBox="0 0 196 27" fill="none" xmlns="http://www.w3.org/2000/svg">
<path fill-rule="evenodd" clip-rule="evenodd" d="M20.8086 18.6845L26.8075 24.6906C27.0754 24.9886 27.0622 25.4447 26.7775 25.7267L25.7277 26.7777C25.5869 26.9199 25.3952 26.9998 25.1953 26.9998C24.9953 26.9998 24.8037 26.9199 24.6629 26.7777L18.664 20.7716C18.4981 20.6054 18.3475 20.4245 18.2141 20.2311L17.0893 18.7296C15.2282 20.2175 12.9171 21.0276 10.5355 21.0269C5.62785 21.0439 1.36328 17.6545 0.266542 12.8651C-0.830192 8.07578 1.53362 3.16477 5.95852 1.03956C10.3834 -1.08565 15.6885 0.142126 18.733 3.99601C21.7774 7.84989 21.7488 13.3013 18.664 17.1229L20.1637 18.159C20.3979 18.3091 20.6143 18.4854 20.8086 18.6845ZM3.03678 10.5162C3.03678 14.6625 6.39402 18.0238 10.5354 18.0238C12.5241 18.0238 14.4314 17.2328 15.8377 15.8249C17.2439 14.4169 18.034 12.5073 18.034 10.5162C18.034 6.36984 14.6767 3.00856 10.5354 3.00856C6.39402 3.00856 3.03678 6.36984 3.03678 10.5162Z" fill="#07484A"/>
<path fill-rule="evenodd" clip-rule="evenodd" d="M90.022 2.70002H111.325C111.698 2.70002 112 3.00223 112 3.37502V4.05002C111.99 5.17036 111.688 6.26868 111.123 7.23602L107.95 12.8115C107.264 14.0454 105.973 14.8216 104.562 14.85H96.151C95.8592 14.8437 95.5692 14.803 95.287 14.7285L93.937 17.55H108.625C108.998 17.55 109.3 17.8522 109.3 18.225V19.575C109.3 19.9478 108.998 20.25 108.625 20.25H91.75C91.3805 20.2586 91.035 20.0678 90.8455 19.7505L90.5485 19.2375C90.3924 18.9371 90.3924 18.5795 90.5485 18.279L93.0595 13.284C92.9224 13.1392 92.8003 12.9809 92.695 12.8115L86.917 2.70002H85.675C85.3022 2.70002 85 2.39781 85 2.02502V0.675021C85 0.302229 85.3022 2.1373e-05 85.675 2.1373e-05H86.917C87.8854 -0.00382344 88.7818 0.511309 89.266 1.35002L90.022 2.70002ZM93.1 21.6C91.6088 21.6 90.4 22.8089 90.4 24.3C90.4 25.7912 91.6088 27 93.1 27C94.5912 27 95.8 25.7912 95.8 24.3C95.8 22.8089 94.5912 21.6 93.1 21.6ZM109.3 24.3C109.3 25.7912 108.091 27 106.6 27C105.109 27 103.9 25.7912 103.9 24.3C103.9 22.8089 105.109 21.6 106.6 21.6C108.091 21.6 109.3 22.8089 109.3 24.3Z" fill="#07484A"/>
<path fill-rule="evenodd" clip-rule="evenodd" d="M183 1C175.82 1 170 6.8203 170 14C170 21.1797 175.82 27 183 27C190.18 27 196 21.1797 196 14C196 10.5522 194.63 7.24558 192.192 4.80761C189.754 2.36964 186.448 1 183 1ZM183 4.89995C185.154 4.89995 186.9 6.64604 186.9 8.79995C186.9 10.9539 185.154 12.7 183 12.7C180.846 12.7 179.1 10.9539 179.1 8.79995C179.1 6.64604 180.846 4.89995 183 4.89995ZM183 23.0829C185.879 23.0829 188.589 21.7199 190.306 19.408C190.572 19.0192 190.607 18.5168 190.397 18.095L190.098 17.484C189.444 16.149 188.087 15.302 186.601 15.3H179.399C177.891 15.3016 176.519 16.1723 175.876 17.536L175.603 18.108C175.398 18.5264 175.433 19.0223 175.694 19.408C177.41 21.7199 180.12 23.0829 183 23.0829Z" fill="#07484A"/>
</svg>
