<svg width="40" height="331" viewBox="0 0 40 331" fill="none" xmlns="http://www.w3.org/2000/svg">
<line x1="18.5" y1="183" x2="18.5" y2="-2.18557e-08" stroke="#07484A"/>
<line x1="18.5" y1="54" x2="18.5" y2="1.09278e-07" stroke="#70908B" stroke-width="5"/>
<rect x="40" y="267" width="40" height="40" rx="20" transform="rotate(180 40 267)" fill="#E0EFF6"/>
<path fill-rule="evenodd" clip-rule="evenodd" d="M19.9995 242.979C20.118 242.979 20.2317 243.026 20.3155 243.109C20.3993 243.193 20.4464 243.307 20.4464 243.425L20.4464 251.468C20.4464 251.586 20.3993 251.7 20.3155 251.784C20.2317 251.868 20.118 251.915 19.9995 251.915C19.881 251.915 19.7674 251.868 19.6836 251.784C19.5998 251.7 19.5527 251.586 19.5527 251.468L19.5527 243.425C19.5527 243.307 19.5998 243.193 19.6836 243.109C19.7674 243.026 19.881 242.979 19.9995 242.979Z" fill="#07484A"/>
<path fill-rule="evenodd" clip-rule="evenodd" d="M19.683 242.215C19.7245 242.174 19.7738 242.141 19.8281 242.118C19.8824 242.096 19.9406 242.084 19.9993 242.084C20.0581 242.084 20.1163 242.096 20.1706 242.118C20.2249 242.141 20.2742 242.174 20.3157 242.215L22.9965 244.896C23.0804 244.98 23.1276 245.094 23.1276 245.212C23.1276 245.331 23.0804 245.445 22.9965 245.529C22.9126 245.613 22.7988 245.66 22.6802 245.66C22.5615 245.66 22.4478 245.613 22.3639 245.529L19.9993 243.163L17.6348 245.529C17.5509 245.613 17.4371 245.66 17.3185 245.66C17.1998 245.66 17.086 245.613 17.0021 245.529C16.9182 245.445 16.8711 245.331 16.8711 245.212C16.8711 245.094 16.9182 244.98 17.0021 244.896L19.683 242.215Z" fill="#07484A"/>
<rect y="291" width="40" height="40" rx="20" fill="#F9D9DA"/>
<path fill-rule="evenodd" clip-rule="evenodd" d="M20.0005 315.021C19.882 315.021 19.7683 314.974 19.6845 314.891C19.6007 314.807 19.5536 314.693 19.5536 314.575L19.5536 306.532C19.5536 306.414 19.6007 306.3 19.6845 306.216C19.7683 306.132 19.882 306.085 20.0005 306.085C20.119 306.085 20.2326 306.132 20.3164 306.216C20.4002 306.3 20.4473 306.414 20.4473 306.532L20.4473 314.575C20.4473 314.693 20.4002 314.807 20.3164 314.891C20.2326 314.974 20.119 315.021 20.0005 315.021Z" fill="#07484A"/>
<path fill-rule="evenodd" clip-rule="evenodd" d="M20.317 315.785C20.2755 315.826 20.2262 315.859 20.1719 315.882C20.1176 315.904 20.0594 315.916 20.0007 315.916C19.9419 315.916 19.8837 315.904 19.8294 315.882C19.7751 315.859 19.7258 315.826 19.6843 315.785L17.0035 313.104C16.9196 313.02 16.8724 312.906 16.8724 312.788C16.8724 312.669 16.9196 312.555 17.0035 312.471C17.0874 312.387 17.2012 312.34 17.3198 312.34C17.4385 312.34 17.5522 312.387 17.6361 312.471L20.0007 314.837L22.3652 312.471C22.4491 312.387 22.5629 312.34 22.6815 312.34C22.8002 312.34 22.914 312.387 22.9979 312.471C23.0818 312.555 23.1289 312.669 23.1289 312.788C23.1289 312.906 23.0818 313.02 22.9979 313.104L20.317 315.785Z" fill="#07484A"/>
</svg>
