<svg width="1620" height="69" viewBox="0 0 1620 69" fill="none" xmlns="http://www.w3.org/2000/svg">
<line x1="2.62268e-07" y1="6" x2="1620" y2="6.00014" stroke="#07484A" stroke-width="6"/>
<line x1="5.03967e-07" y1="6" x2="120" y2="6.00001" stroke="#70908B" stroke-width="12"/>
<rect x="1556" y="29" width="40" height="40" rx="20" transform="rotate(90 1556 29)" fill="#E0EFF6"/>
<path fill-rule="evenodd" clip-rule="evenodd" d="M1531.98 49.0005C1531.98 48.882 1532.03 48.7683 1532.11 48.6845C1532.19 48.6007 1532.31 48.5536 1532.43 48.5536L1540.47 48.5536C1540.59 48.5536 1540.7 48.6007 1540.78 48.6845C1540.87 48.7683 1540.91 48.882 1540.91 49.0005C1540.91 49.119 1540.87 49.2326 1540.78 49.3164C1540.7 49.4002 1540.59 49.4473 1540.47 49.4473L1532.43 49.4473C1532.31 49.4473 1532.19 49.4002 1532.11 49.3164C1532.03 49.2326 1531.98 49.119 1531.98 49.0005Z" fill="#07484A"/>
<path fill-rule="evenodd" clip-rule="evenodd" d="M1531.22 49.317C1531.17 49.2755 1531.14 49.2262 1531.12 49.1719C1531.1 49.1176 1531.08 49.0594 1531.08 49.0007C1531.08 48.9419 1531.1 48.8837 1531.12 48.8294C1531.14 48.7751 1531.17 48.7258 1531.22 48.6843L1533.9 46.0035C1533.98 45.9196 1534.09 45.8724 1534.21 45.8724C1534.33 45.8724 1534.44 45.9196 1534.53 46.0035C1534.61 46.0874 1534.66 46.2012 1534.66 46.3198C1534.66 46.4385 1534.61 46.5522 1534.53 46.6361L1532.16 49.0007L1534.53 51.3652C1534.61 51.4491 1534.66 51.5629 1534.66 51.6815C1534.66 51.8002 1534.61 51.914 1534.53 51.9979C1534.44 52.0818 1534.33 52.1289 1534.21 52.1289C1534.09 52.1289 1533.98 52.0818 1533.9 51.9979L1531.22 49.317Z" fill="#07484A"/>
<rect x="1580" y="69" width="40" height="40" rx="20" transform="rotate(-90 1580 69)" fill="#F9D9DA"/>
<path fill-rule="evenodd" clip-rule="evenodd" d="M1604.02 48.9995C1604.02 49.118 1603.97 49.2317 1603.89 49.3155C1603.81 49.3993 1603.69 49.4464 1603.57 49.4464L1595.53 49.4464C1595.41 49.4464 1595.3 49.3993 1595.22 49.3155C1595.13 49.2317 1595.09 49.118 1595.09 48.9995C1595.09 48.881 1595.13 48.7674 1595.22 48.6836C1595.3 48.5998 1595.41 48.5527 1595.53 48.5527L1603.57 48.5527C1603.69 48.5527 1603.81 48.5998 1603.89 48.6836C1603.97 48.7674 1604.02 48.881 1604.02 48.9995Z" fill="#07484A"/>
<path fill-rule="evenodd" clip-rule="evenodd" d="M1604.78 48.683C1604.83 48.7245 1604.86 48.7738 1604.88 48.8281C1604.9 48.8824 1604.92 48.9406 1604.92 48.9993C1604.92 49.0581 1604.9 49.1163 1604.88 49.1706C1604.86 49.2249 1604.83 49.2742 1604.78 49.3157L1602.1 51.9965C1602.02 52.0804 1601.91 52.1276 1601.79 52.1276C1601.67 52.1276 1601.56 52.0804 1601.47 51.9965C1601.39 51.9126 1601.34 51.7988 1601.34 51.6802C1601.34 51.5615 1601.39 51.4478 1601.47 51.3639L1603.84 48.9993L1601.47 46.6348C1601.39 46.5509 1601.34 46.4371 1601.34 46.3185C1601.34 46.1998 1601.39 46.086 1601.47 46.0021C1601.56 45.9182 1601.67 45.8711 1601.79 45.8711C1601.91 45.8711 1602.02 45.9182 1602.1 46.0021L1604.78 48.683Z" fill="#07484A"/>
</svg>
