<svg width="162" height="122" viewBox="0 0 162 122" fill="none" xmlns="http://www.w3.org/2000/svg">
<path d="M92.572 121.5L159.107 121.5C160.698 121.5 162 120.198 162 118.607L162 52.0715C162 50.4804 160.698 49.1786 159.107 49.1786L121.5 49.1786L121.5 46.2858C121.5 31.9374 133.187 20.2503 147.536 20.2503L159.107 20.2503C160.698 20.2503 162 18.9485 162 17.3575L162 2.89329C162 1.30223 160.698 0.000452084 159.107 0.000452224L141.75 0.000453741C113.024 0.000456252 89.6791 23.3746 89.6791 52.0715L89.6791 118.607C89.6791 120.198 90.9809 121.5 92.572 121.5Z" fill="#E0EFF6"/>
<path d="M2.89316 121.5L69.4283 121.5C71.0194 121.5 72.3212 120.198 72.3212 118.607L72.3212 52.0715C72.3212 50.4804 71.0194 49.1786 69.4283 49.1786L31.8215 49.1786L31.8215 46.2858C31.8215 31.9374 43.5085 20.2503 57.857 20.2503L69.4283 20.2503C71.0194 20.2503 72.3212 18.9485 72.3212 17.3575L72.3212 2.89329C72.3212 1.30223 71.0194 0.000452084 69.4283 0.000452224L52.0713 0.000453741C23.3455 0.000456252 0.000313163 23.3746 0.000315672 52.0715L0.000321489 118.607C0.000321628 120.198 1.3021 121.5 2.89316 121.5Z" fill="#E0EFF6"/>
</svg>
