<svg width="20" height="13" viewBox="0 0 20 13" fill="none" xmlns="http://www.w3.org/2000/svg">
<path fill-rule="evenodd" clip-rule="evenodd" d="M18.18 6.36504C18.18 6.60613 18.0842 6.83734 17.9137 7.00782C17.7433 7.17829 17.512 7.27406 17.271 7.27406L0.908569 7.27406C0.667481 7.27406 0.436267 7.17829 0.265794 7.00782C0.0953188 6.83734 -0.000453235 6.60613 -0.000453238 6.36504C-0.000453241 6.12395 0.0953188 5.89274 0.265794 5.72227C0.436267 5.55179 0.667481 5.45602 0.908569 5.45602L17.271 5.45602C17.512 5.45602 17.7433 5.55179 17.9137 5.72227C18.0842 5.89274 18.18 6.12395 18.18 6.36504Z" fill="#07484A"/>
<path fill-rule="evenodd" clip-rule="evenodd" d="M19.7329 5.72071C19.8176 5.80515 19.8848 5.90546 19.9306 6.0159C19.9764 6.12634 20 6.24473 20 6.3643C20 6.48387 19.9764 6.60226 19.9306 6.7127C19.8848 6.82313 19.8176 6.92345 19.7329 7.00789L14.2788 12.462C14.1081 12.6327 13.8766 12.7286 13.6352 12.7286C13.3938 12.7286 13.1623 12.6327 12.9916 12.462C12.8209 12.2913 12.7251 12.0598 12.7251 11.8184C12.7251 11.577 12.8209 11.3455 12.9916 11.1748L17.804 6.3643L12.9916 1.55376C12.8209 1.38307 12.7251 1.15156 12.7251 0.91017C12.7251 0.668778 12.8209 0.437273 12.9916 0.266583C13.1623 0.0958929 13.3938 7.87778e-08 13.6352 7.58992e-08C13.8766 7.30206e-08 14.1081 0.0958929 14.2788 0.266583L19.7329 5.72071Z" fill="#07484A"/>
</svg>
