<svg width="40" height="104" viewBox="0 0 40 104" fill="none" xmlns="http://www.w3.org/2000/svg">
<rect x="40" y="40" width="40" height="40" rx="20" transform="rotate(180 40 40)" fill="#E0EFF6"/>
<path fill-rule="evenodd" clip-rule="evenodd" d="M19.9995 15.9795C20.118 15.9795 20.2317 16.0266 20.3155 16.1104C20.3993 16.1942 20.4464 16.3078 20.4464 16.4263L20.4464 24.4689C20.4464 24.5874 20.3993 24.701 20.3155 24.7848C20.2317 24.8686 20.118 24.9157 19.9995 24.9157C19.881 24.9157 19.7674 24.8686 19.6836 24.7848C19.5998 24.701 19.5527 24.5874 19.5527 24.4689L19.5527 16.4263C19.5527 16.3078 19.5998 16.1942 19.6836 16.1104C19.7674 16.0266 19.881 15.9795 19.9995 15.9795Z" fill="#07484A"/>
<path fill-rule="evenodd" clip-rule="evenodd" d="M19.683 15.2162C19.7245 15.1746 19.7738 15.1416 19.8281 15.1191C19.8824 15.0966 19.9406 15.085 19.9993 15.085C20.0581 15.085 20.1163 15.0966 20.1706 15.1191C20.2249 15.1416 20.2742 15.1746 20.3157 15.2162L22.9965 17.8971C23.0804 17.981 23.1276 18.0948 23.1276 18.2134C23.1276 18.3321 23.0804 18.4459 22.9965 18.5298C22.9126 18.6137 22.7988 18.6608 22.6802 18.6608C22.5615 18.6608 22.4478 18.6137 22.3639 18.5298L19.9993 16.1644L17.6348 18.5298C17.5509 18.6137 17.4371 18.6608 17.3185 18.6608C17.1998 18.6608 17.086 18.6137 17.0021 18.5298C16.9182 18.4459 16.8711 18.3321 16.8711 18.2134C16.8711 18.0948 16.9182 17.981 17.0021 17.8971L19.683 15.2162Z" fill="#07484A"/>
<rect y="64" width="40" height="40" rx="20" fill="#F9D9DA"/>
<path fill-rule="evenodd" clip-rule="evenodd" d="M20.0005 88.0205C19.882 88.0205 19.7683 87.9734 19.6845 87.8896C19.6007 87.8058 19.5536 87.6922 19.5536 87.5737L19.5536 79.5311C19.5536 79.4126 19.6007 79.299 19.6845 79.2152C19.7683 79.1314 19.882 79.0843 20.0005 79.0843C20.119 79.0843 20.2326 79.1314 20.3164 79.2152C20.4002 79.299 20.4473 79.4126 20.4473 79.5311L20.4473 87.5737C20.4473 87.6922 20.4002 87.8058 20.3164 87.8896C20.2326 87.9734 20.119 88.0205 20.0005 88.0205Z" fill="#07484A"/>
<path fill-rule="evenodd" clip-rule="evenodd" d="M20.317 88.7838C20.2755 88.8254 20.2262 88.8584 20.1719 88.8809C20.1176 88.9034 20.0594 88.915 20.0007 88.915C19.9419 88.915 19.8837 88.9034 19.8294 88.8809C19.7751 88.8584 19.7258 88.8254 19.6843 88.7838L17.0035 86.1029C16.9196 86.019 16.8724 85.9052 16.8724 85.7866C16.8724 85.6679 16.9196 85.5541 17.0035 85.4702C17.0874 85.3863 17.2012 85.3392 17.3198 85.3392C17.4385 85.3392 17.5522 85.3863 17.6361 85.4702L20.0007 87.8356L22.3652 85.4702C22.4491 85.3863 22.5629 85.3392 22.6815 85.3392C22.8002 85.3392 22.914 85.3863 22.9979 85.4702C23.0818 85.5541 23.1289 85.6679 23.1289 85.7866C23.1289 85.9052 23.0818 86.019 22.9979 86.1029L20.317 88.7838Z" fill="#07484A"/>
</svg>
