<svg width="286" height="30" viewBox="0 0 286 30" fill="none" xmlns="http://www.w3.org/2000/svg">
<path d="M27 4.11111V25.8889C27 27.6071 25.6569 29 24 29H18.375C17.9608 29 17.625 28.6518 17.625 28.2222V18.8889H21.135C21.4915 18.889 21.7987 18.6289 21.87 18.2667L22.41 15.4667C22.4323 15.3536 22.405 15.236 22.3354 15.1459C22.2659 15.0557 22.1613 15.0023 22.05 15H17.625V9.94444C17.625 9.72967 17.7929 9.55556 18 9.55556H21.75C22.1642 9.55556 22.5 9.20733 22.5 8.77778V6.44444C22.5 6.01489 22.1642 5.66667 21.75 5.66667H18C15.5147 5.66667 13.5 7.756 13.5 10.3333V15H11.655C11.2408 15 10.905 15.3482 10.905 15.7778V18.1111C10.905 18.5407 11.2408 18.8889 11.655 18.8889H13.5V28.2222C13.5 28.6518 13.1642 29 12.75 29H3C1.34315 29 0 27.6071 0 25.8889V4.11111C0 2.39289 1.34315 1 3 1H24C25.6569 1 27 2.39289 27 4.11111Z" fill="#07484A"/>
<path fill-rule="evenodd" clip-rule="evenodd" d="M82.5 1.5H70.5C66.3579 1.5 63 4.85786 63 9V21C63 25.1421 66.3579 28.5 70.5 28.5H82.5C86.6421 28.5 90 25.1421 90 21V9C90 4.85786 86.6421 1.5 82.5 1.5ZM87.375 21C87.3667 23.689 85.189 25.8668 82.5 25.875H70.5C67.811 25.8668 65.6332 23.689 65.625 21V9C65.6332 6.31103 67.811 4.13324 70.5 4.125H82.5C85.189 4.13324 87.3667 6.31103 87.375 9V21ZM83.625 9.375C84.4534 9.375 85.125 8.70342 85.125 7.875C85.125 7.04657 84.4534 6.375 83.625 6.375C82.7966 6.375 82.125 7.04657 82.125 7.875C82.125 8.70342 82.7966 9.375 83.625 9.375ZM76.5 8.25001C72.7721 8.25001 69.75 11.2721 69.75 15C69.75 18.7279 72.7721 21.75 76.5 21.75C80.2279 21.75 83.25 18.7279 83.25 15C83.254 13.2086 82.5441 11.4894 81.2774 10.2226C80.0107 8.9559 78.2914 8.24602 76.5 8.25001ZM72.375 15C72.375 17.2782 74.2218 19.125 76.5 19.125C78.7782 19.125 80.625 17.2782 80.625 15C80.625 12.7218 78.7782 10.875 76.5 10.875C74.2218 10.875 72.375 12.7218 72.375 15Z" fill="#07484A"/>
<path fill-rule="evenodd" clip-rule="evenodd" d="M129.111 1.5H150.889C152.607 1.5 154 2.84315 154 4.5V25.5C154 27.1569 152.607 28.5 150.889 28.5H129.111C127.393 28.5 126 27.1569 126 25.5V4.5C126 2.84315 127.393 1.5 129.111 1.5ZM133.778 24C134.207 24 134.556 23.6642 134.556 23.25V12.75C134.556 12.3358 134.207 12 133.778 12H131.444C131.015 12 130.667 12.3358 130.667 12.75V23.25C130.667 23.6642 131.015 24 131.444 24H133.778ZM132.611 10.5C131.322 10.5 130.278 9.49264 130.278 8.25C130.278 7.00736 131.322 6 132.611 6C133.9 6 134.944 7.00736 134.944 8.25C134.944 9.49264 133.9 10.5 132.611 10.5ZM148.556 24.0001C148.985 24.0001 149.333 23.6643 149.333 23.2501V16.3501C149.384 13.9662 147.556 11.9318 145.102 11.6401C143.386 11.4889 141.724 12.2617 140.778 13.6501V12.7501C140.778 12.3358 140.43 12.0001 140 12.0001H137.667C137.237 12.0001 136.889 12.3358 136.889 12.7501V23.2501C136.889 23.6643 137.237 24.0001 137.667 24.0001H140C140.43 24.0001 140.778 23.6643 140.778 23.2501V17.6251C140.778 16.3824 141.822 15.3751 143.111 15.3751C144.4 15.3751 145.444 16.3824 145.444 17.6251V23.2501C145.444 23.6643 145.793 24.0001 146.222 24.0001H148.556Z" fill="#07484A"/>
<path fill-rule="evenodd" clip-rule="evenodd" d="M205 0C196.716 0 190 6.71573 190 15C190 23.2843 196.716 30 205 30C213.284 30 220 23.2843 220 15C220 11.0218 218.42 7.20644 215.607 4.3934C212.794 1.58035 208.978 0 205 0ZM217 15.0002C215.282 14.4844 213.499 14.2216 211.705 14.2202C210.638 14.2344 209.574 14.3398 208.525 14.5352C208.15 13.6202 207.76 12.7352 207.34 11.8502C209.807 10.6176 212.056 8.99131 214 7.03516C215.947 9.23002 217.015 12.0663 217 15.0002ZM206.305 9.87C208.531 8.75354 210.558 7.27889 212.305 5.505C210.213 3.88789 207.645 3.00727 205 3C204.029 3.00392 203.062 3.12479 202.12 3.36C203.685 5.41621 205.084 7.59301 206.305 9.87ZM199.93 4.14001C201.556 6.23702 203.006 8.46457 204.265 10.8C201.63 11.8289 198.828 12.3628 196 12.375C195.113 12.3653 194.227 12.3103 193.345 12.21C194.197 8.65797 196.621 5.68755 199.93 4.14001ZM193 14.4301V15.0001C193.007 17.9598 194.107 20.8125 196.09 23.0101C198.424 19.2144 202.061 16.3989 206.32 15.0901C206.005 14.3101 205.645 13.5601 205.285 12.8102L205.285 12.8101L205.285 12.8101L205.285 12.8101C202.334 14 199.182 14.616 196 14.6251C194.997 14.6216 193.995 14.5565 193 14.4301ZM197.77 24.5549C199.828 20.9944 203.172 18.3584 207.115 17.1899C208.17 20.1044 208.919 23.1206 209.35 26.1899C205.473 27.7153 201.08 27.1008 197.77 24.5699V24.5549ZM209.335 16.68C210.293 19.4165 211.005 22.2326 211.465 25.095C214.219 23.3361 216.137 20.53 216.775 17.325C215.14 16.7804 213.428 16.5018 211.705 16.5C210.912 16.5072 210.12 16.5673 209.335 16.68Z" fill="#07484A"/>
<path d="M285.956 5.41307C285.182 6.50633 284.246 7.45999 283.185 8.23722C283.185 8.52281 283.185 8.80839 283.185 9.10985C283.194 14.2961 281.237 19.269 277.754 22.9138C274.271 26.5586 269.554 28.5704 264.658 28.4981C261.828 28.5081 259.034 27.8239 256.495 26.499C256.359 26.4357 256.27 26.2923 256.271 26.1341V25.9596C256.271 25.7317 256.445 25.547 256.66 25.547C259.442 25.45 262.125 24.4287 264.329 22.6277C261.811 22.574 259.545 20.9946 258.502 18.566C258.45 18.4333 258.466 18.2812 258.546 18.1645C258.625 18.0479 258.756 17.9836 258.892 17.9948C259.657 18.0763 260.43 18.0009 261.168 17.7727C258.389 17.1617 256.3 14.7183 256.001 11.7277C255.991 11.5843 256.051 11.4453 256.161 11.3611C256.272 11.2768 256.415 11.2594 256.54 11.3152C257.286 11.6637 258.092 11.8473 258.907 11.8547C256.471 10.162 255.419 6.94244 256.346 4.01686C256.441 3.73258 256.671 3.52257 256.951 3.464C257.23 3.40544 257.518 3.50697 257.709 3.73127C260.995 7.43516 265.511 9.64228 270.305 9.88728C270.182 9.36855 270.122 8.83546 270.125 8.30068C270.17 5.49657 271.808 2.99861 274.274 1.97625C276.739 0.953892 279.543 1.60947 281.373 3.63607C282.62 3.38445 283.826 2.94079 284.953 2.31919C285.035 2.26466 285.14 2.26466 285.222 2.31919C285.274 2.40658 285.274 2.5174 285.222 2.60478C284.677 3.92738 283.755 5.03668 282.586 5.77799C283.61 5.65229 284.616 5.39659 285.582 5.01642C285.663 4.95779 285.77 4.95779 285.851 5.01642C285.919 5.04943 285.97 5.11255 285.991 5.18898C286.011 5.2654 285.998 5.34738 285.956 5.41307Z" fill="#07484A"/>
</svg>
