<svg width="40" height="104" viewBox="0 0 40 104" fill="none" xmlns="http://www.w3.org/2000/svg">
<rect x="40" width="40" height="40" rx="20" transform="rotate(90 40 0)" fill="#E0EFF6"/>
<path fill-rule="evenodd" clip-rule="evenodd" d="M15.9785 20.0005C15.9785 19.882 16.0256 19.7683 16.1094 19.6845C16.1932 19.6007 16.3068 19.5536 16.4253 19.5536L24.4679 19.5536C24.5864 19.5536 24.7001 19.6007 24.7839 19.6845C24.8677 19.7683 24.9147 19.882 24.9147 20.0005C24.9147 20.119 24.8677 20.2326 24.7839 20.3164C24.7001 20.4002 24.5864 20.4473 24.4679 20.4473L16.4253 20.4473C16.3068 20.4473 16.1932 20.4002 16.1094 20.3164C16.0256 20.2326 15.9785 20.119 15.9785 20.0005Z" fill="#07484A"/>
<path fill-rule="evenodd" clip-rule="evenodd" d="M15.2153 20.317C15.1736 20.2755 15.1406 20.2262 15.1181 20.1719C15.0956 20.1176 15.084 20.0594 15.084 20.0007C15.084 19.9419 15.0956 19.8837 15.1181 19.8294C15.1406 19.7751 15.1736 19.7258 15.2153 19.6843L17.8961 17.0035C17.98 16.9196 18.0938 16.8724 18.2125 16.8724C18.3311 16.8724 18.4449 16.9196 18.5288 17.0035C18.6127 17.0874 18.6598 17.2012 18.6598 17.3198C18.6598 17.4385 18.6127 17.5522 18.5288 17.6361L16.1634 20.0007L18.5288 22.3652C18.6127 22.4491 18.6598 22.5629 18.6598 22.6815C18.6598 22.8002 18.6127 22.914 18.5288 22.9979C18.4449 23.0818 18.3311 23.1289 18.2125 23.1289C18.0938 23.1289 17.98 23.0818 17.8961 22.9979L15.2153 20.317Z" fill="#07484A"/>
<rect y="104" width="40" height="40" rx="20" transform="rotate(-90 0 104)" fill="#F9D9DA"/>
<path fill-rule="evenodd" clip-rule="evenodd" d="M24.0215 83.9995C24.0215 84.118 23.9744 84.2317 23.8906 84.3155C23.8068 84.3993 23.6932 84.4464 23.5747 84.4464L15.5321 84.4464C15.4136 84.4464 15.2999 84.3993 15.2161 84.3155C15.1323 84.2317 15.0853 84.118 15.0853 83.9995C15.0853 83.881 15.1323 83.7674 15.2161 83.6836C15.2999 83.5998 15.4136 83.5527 15.5321 83.5527L23.5747 83.5527C23.6932 83.5527 23.8068 83.5998 23.8906 83.6836C23.9744 83.7674 24.0215 83.881 24.0215 83.9995Z" fill="#07484A"/>
<path fill-rule="evenodd" clip-rule="evenodd" d="M24.7847 83.683C24.8264 83.7245 24.8594 83.7738 24.8819 83.8281C24.9044 83.8824 24.916 83.9406 24.916 83.9993C24.916 84.0581 24.9044 84.1163 24.8819 84.1706C24.8594 84.2249 24.8264 84.2742 24.7847 84.3157L22.1039 86.9965C22.02 87.0804 21.9062 87.1276 21.7875 87.1276C21.6689 87.1276 21.5551 87.0804 21.4712 86.9965C21.3873 86.9126 21.3402 86.7988 21.3402 86.6802C21.3402 86.5615 21.3873 86.4478 21.4712 86.3639L23.8366 83.9993L21.4712 81.6348C21.3873 81.5509 21.3402 81.4371 21.3402 81.3185C21.3402 81.1998 21.3873 81.086 21.4712 81.0021C21.5551 80.9182 21.6689 80.8711 21.7875 80.8711C21.9062 80.8711 22.02 80.9182 22.1039 81.0021L24.7847 83.683Z" fill="#07484A"/>
</svg>
