<svg width="68" height="68" viewBox="0 0 68 68" fill="none" xmlns="http://www.w3.org/2000/svg">
<path d="M67.3103 14.7061L40.8269 0.163809C40.429 -0.054603 39.9465 -0.054603 39.5486 0.163809L29.5665 5.64486C29.3559 5.70037 29.1592 5.80621 28.9963 5.95821L13.0657 14.7061C12.6409 14.939 12.3768 15.3852 12.3768 15.8703V33.4584C9.68944 34.2989 7.22673 35.7811 5.17905 37.8293C-0.158295 43.1661 -1.51909 51.3059 1.79289 58.084C2.11454 58.7429 2.90985 59.0163 3.56872 58.6941C4.2281 58.3719 4.50099 57.5766 4.17934 56.9177C1.3654 51.1586 2.52179 44.2426 7.05708 39.7073C9.89333 36.871 13.6639 35.309 17.6747 35.309C21.6855 35.309 25.4561 36.871 28.2923 39.7073C31.1281 42.543 32.6901 46.3136 32.6901 50.3244C32.6901 54.3352 31.1281 58.1058 28.2918 60.942C23.7565 65.4773 16.8405 66.6337 11.0814 63.8198C10.4225 63.4976 9.62718 63.771 9.30553 64.4299C8.98336 65.0893 9.25625 65.8846 9.91563 66.2062C12.3846 67.4129 15.0335 67.9992 17.6633 67.9992C22.251 67.9986 26.7775 66.213 30.1704 62.8201C31.7262 61.2642 32.9558 59.4692 33.8258 57.518L39.5486 60.6603C39.7478 60.7698 39.9678 60.8243 40.1877 60.8243C40.4077 60.8243 40.6282 60.7698 40.8269 60.6603L67.3103 46.1185C67.7351 45.8851 67.9992 45.4389 67.9992 44.9544V35.7245C67.9992 34.9909 67.4047 34.3964 66.6711 34.3964C65.9375 34.3964 65.343 34.9909 65.343 35.7245V44.1684L41.52 57.2498V31.196L49.3823 26.8786V33.7225C49.3823 34.1925 49.6303 34.6273 50.0344 34.8659C50.243 34.9889 50.4765 35.0506 50.7104 35.0506C50.9304 35.0506 51.1509 34.9961 51.3506 34.8861L57.0257 31.7625C57.4501 31.529 57.7131 31.0834 57.7131 30.5993V22.3038L65.343 18.1146V25.1001C65.343 25.8337 65.9375 26.4282 66.6711 26.4282C67.4047 26.4282 67.9992 25.8337 67.9992 25.1001V15.8703C67.9992 15.3857 67.7351 14.939 67.3103 14.7061ZM40.1877 2.84286L63.9116 15.8703L56.428 19.9796L32.7041 6.95222L40.1877 2.84286ZM40.1877 28.8972L16.4638 15.8703L24.2219 11.6099L47.9463 24.6369L40.1877 28.8972ZM50.7052 23.122L26.9813 10.0951L29.9447 8.46762L53.6691 21.4945L50.7052 23.122ZM30.1704 37.8293C26.8324 34.4913 22.3947 32.6533 17.6747 32.6533C16.7819 32.6533 15.8999 32.7191 15.033 32.8483V18.1146L38.8643 31.2006V57.2544L34.728 54.9832C35.1352 53.4838 35.3458 51.9202 35.3458 50.3244C35.3458 45.6044 33.5078 41.1666 30.1704 37.8293ZM55.0574 29.8144L52.0385 31.4761V25.4202L55.0574 23.7627V29.8144Z" fill="#70908B"/>
<path d="M66.6714 29.0781C66.3223 29.0781 65.9794 29.2203 65.7324 29.4672C65.4855 29.7141 65.3433 30.0566 65.3433 30.4062C65.3433 30.7554 65.4855 31.0978 65.7324 31.3447C65.9794 31.5922 66.3223 31.7338 66.6714 31.7338C67.0206 31.7338 67.3635 31.5922 67.6105 31.3447C67.8574 31.0978 67.9996 30.7554 67.9996 30.4062C67.9996 30.0566 67.8574 29.7141 67.6105 29.4672C67.3635 29.2203 67.0206 29.0781 66.6714 29.0781Z" fill="#70908B"/>
<path d="M13.2092 51.6532C13.549 51.6532 13.8893 51.5235 14.1482 51.2646C14.667 50.7458 14.667 49.9048 14.1482 49.386L13.2284 48.4657H21.0777C22.9817 48.4657 24.5308 50.0148 24.5308 51.9188C24.5308 53.8227 22.9817 55.3719 21.0777 55.3719H16.4267C15.6932 55.3719 15.0986 55.9664 15.0986 56.7C15.0986 57.433 15.6932 58.0276 16.4267 58.0276H21.0777C24.4463 58.0276 27.187 55.2873 27.187 51.9188C27.187 48.5502 24.4463 45.81 21.0777 45.81H13.2284L14.1482 44.8896C14.667 44.3708 14.667 43.5299 14.1482 43.0111C13.6299 42.4928 12.789 42.4928 12.2702 43.0111L9.08271 46.1986C8.56443 46.7174 8.56443 47.5583 9.08271 48.0771L12.2702 51.2641C12.5296 51.5235 12.8694 51.6532 13.2092 51.6532Z" fill="#70908B"/>
<path d="M6.11839 63.2104C5.74071 63.2104 5.36562 63.0496 5.10363 62.7378L5.10104 62.7347C4.62893 62.1734 4.70157 61.336 5.2629 60.8639C5.82423 60.3913 6.66209 60.4639 7.13419 61.0253C7.60577 61.5871 7.5347 62.426 6.97336 62.8981C6.72382 63.1077 6.42033 63.2104 6.11839 63.2104Z" fill="#70908B"/>
</svg>
