<svg width="68" height="68" viewBox="0 0 68 68" fill="none" xmlns="http://www.w3.org/2000/svg">
<g clip-path="url(#clip0_41_8481)">
<path d="M22.9168 52.0489C22.8995 51.9639 22.8743 51.8803 22.8411 51.7993C22.8079 51.7196 22.7667 51.6425 22.7189 51.5708C22.6711 51.4978 22.6153 51.43 22.5542 51.3689C22.4931 51.3079 22.4254 51.2521 22.3523 51.2043C22.2806 51.1564 22.2036 51.1153 22.1226 51.0821C22.0429 51.0489 21.9592 51.0223 21.8742 51.0064C21.7029 50.9718 21.5263 50.9718 21.3563 51.0064C21.2713 51.0223 21.1876 51.0489 21.1066 51.0821C21.0269 51.1153 20.9498 51.1564 20.8781 51.2043C20.8051 51.2521 20.7373 51.3079 20.6762 51.3689C20.6152 51.43 20.5594 51.4978 20.5116 51.5708C20.4624 51.6425 20.4226 51.7196 20.3894 51.7993C20.3562 51.8803 20.3296 51.9639 20.3137 52.0489C20.2964 52.1339 20.2871 52.2216 20.2871 52.3079C20.2871 52.3943 20.2964 52.4819 20.3137 52.5669C20.3296 52.6519 20.3562 52.7356 20.3894 52.8153C20.4226 52.8963 20.4624 52.9733 20.5116 53.045C20.5594 53.1181 20.6152 53.1858 20.6762 53.2469C20.7373 53.308 20.8051 53.3638 20.8781 53.4116C20.9498 53.4595 21.0269 53.5007 21.1066 53.5339C21.1876 53.5671 21.2713 53.5937 21.3563 53.6096C21.4413 53.6269 21.5289 53.6362 21.6152 53.6362C21.7016 53.6362 21.7892 53.6269 21.8742 53.6096C21.9592 53.5937 22.0429 53.5671 22.1226 53.5339C22.2036 53.5007 22.2806 53.4594 22.3523 53.4116C22.4254 53.3638 22.4931 53.308 22.5542 53.2469C22.6153 53.1858 22.6711 53.1181 22.7189 53.045C22.7667 52.9733 22.8079 52.8963 22.8411 52.8153C22.8743 52.7356 22.8995 52.6519 22.9168 52.5669C22.9341 52.4819 22.9434 52.3943 22.9434 52.3079C22.9434 52.2216 22.9341 52.1339 22.9168 52.0489Z" fill="#70908B"/>
<path d="M61.0928 52.4591C61.0876 52.4459 61.0823 52.4327 61.0768 52.4197C59.8543 49.5593 56.9875 48.5021 53.5946 49.6609L44.3418 52.2197C43.8069 50.5996 42.4725 49.221 40.5858 48.5208C40.5741 48.5166 40.5624 48.5123 40.5506 48.5084L30.3797 45.0563C29.5331 43.9621 26.8814 41.1621 21.9165 41.1621C18.4467 41.1621 15.3773 43.5424 13.6213 46.1369H1.32812C0.594602 46.1369 0 46.7315 0 47.465V64.2096C0 64.9431 0.594602 65.5377 1.32812 65.5377H9.22476C9.95828 65.5377 10.5529 64.9431 10.5529 64.2096V63.0629H14.2561C14.9896 63.0629 15.5842 62.4683 15.5842 61.7348V61.3525C17.743 61.5408 18.453 61.9503 20.4356 63.0936C21.9603 63.9728 24.2647 65.3016 28.4146 67.1674C28.4338 67.1761 28.4534 67.1843 28.4729 67.192C29.2694 67.5053 30.8263 67.9975 32.7459 67.9975C34.0819 67.9975 35.594 67.7589 37.1461 67.0553L57.598 59.7326C57.6344 59.7196 57.6702 59.705 57.7053 59.6888C59.6599 58.7895 62.5726 56.255 61.0928 52.4591ZM7.89663 62.8813H2.65625V48.793H7.89663V62.8813ZM12.928 60.4065H10.5529V48.793H12.928V60.4065ZM56.644 57.2526L36.2012 64.572C36.1833 64.5784 36.159 64.588 36.1413 64.5951C36.1234 64.6024 36.1055 64.6101 36.0878 64.6182C33.2407 65.9267 30.5344 65.1434 29.4737 64.731C25.4652 62.9273 23.3257 61.6936 21.7625 60.7922C19.5892 59.539 18.542 58.9349 15.5842 58.6907V47.9937C16.8431 45.9303 19.2845 43.8182 21.9166 43.8182C26.4304 43.8182 28.343 46.754 28.4182 46.8725C28.5803 47.1363 28.8296 47.3351 29.1227 47.4346L39.678 51.0171C41.3638 51.6498 42.2547 53.0934 41.8452 54.5331C41.6562 55.198 41.2196 55.7494 40.6158 56.0858C40.0172 56.4193 39.3253 56.5018 38.6657 56.3193L26.7666 52.5485C26.067 52.3269 25.3208 52.7141 25.0993 53.4134C24.8776 54.1126 25.2649 54.8591 25.9642 55.0807L37.884 58.858C37.8966 58.862 37.9092 58.8659 37.922 58.8695C38.3978 59.0048 38.8823 59.0717 39.3639 59.0717C40.2455 59.0717 41.1174 58.8471 41.9087 58.4062C43.1323 57.7245 44.0171 56.607 44.4002 55.2596C44.4307 55.152 44.4578 55.0445 44.4813 54.9369L54.4533 52.1744C55.8935 51.6824 57.7841 51.5051 58.6258 53.4438C59.4971 55.7198 57.2326 56.9718 56.644 57.2526Z" fill="#70908B"/>
<path d="M47.6877 17.4708C47.6704 17.3858 47.6452 17.3021 47.6106 17.2211C47.5774 17.1414 47.5376 17.0644 47.4884 16.9927C47.4406 16.9196 47.3848 16.8519 47.3238 16.7908C47.2627 16.7297 47.1949 16.6739 47.1219 16.6261C47.0502 16.5783 46.9731 16.5371 46.8934 16.5039C46.8124 16.4707 46.7287 16.4442 46.6451 16.4282C46.4737 16.3937 46.2971 16.3937 46.1258 16.4282C46.0408 16.4442 45.9571 16.4707 45.8774 16.5039C45.7964 16.5371 45.7194 16.5783 45.6477 16.6261C45.5746 16.6739 45.5069 16.7297 45.4458 16.7908C45.3847 16.8519 45.3289 16.9196 45.2811 16.9927C45.2333 17.0644 45.1921 17.1414 45.1589 17.2211C45.1257 17.3021 45.0991 17.3858 45.0832 17.4708C45.0659 17.5558 45.0566 17.6435 45.0566 17.7298C45.0566 17.8161 45.0659 17.9038 45.0832 17.9888C45.0991 18.0738 45.1257 18.1575 45.1589 18.2371C45.1921 18.3182 45.2333 18.3952 45.2811 18.4669C45.3289 18.54 45.3847 18.6077 45.4458 18.6688C45.5069 18.7299 45.5746 18.7857 45.6477 18.8335C45.7194 18.8813 45.7964 18.9225 45.8774 18.9557C45.9571 18.9889 46.0408 19.0141 46.1258 19.0314C46.2108 19.0486 46.2984 19.0579 46.3848 19.0579C46.4711 19.0579 46.5587 19.0486 46.6451 19.0314C46.7287 19.0141 46.8124 18.9889 46.8934 18.9557C46.9731 18.9225 47.0502 18.8813 47.1219 18.8335C47.1949 18.7857 47.2627 18.7299 47.3238 18.6688C47.3848 18.6077 47.4406 18.54 47.4884 18.4669C47.5376 18.3952 47.5774 18.3182 47.6106 18.2371C47.6452 18.1575 47.6704 18.0738 47.6877 17.9888C47.7049 17.9038 47.7129 17.8161 47.7129 17.7298C47.7129 17.6435 47.7049 17.5558 47.6877 17.4708Z" fill="#70908B"/>
<path d="M66.6719 4.50197H58.7753C58.0418 4.50197 57.4472 5.09657 57.4472 5.83009V6.97679H53.744C53.0104 6.97679 52.4158 7.5714 52.4158 8.30492V8.68715C50.2571 8.49869 49.5471 8.08936 47.5646 6.94611C46.0399 6.0669 43.7355 4.73811 39.5855 2.87222C39.5662 2.86346 39.5468 2.85536 39.5271 2.84765C38.1762 2.31614 34.6358 1.27037 30.8545 2.98405L25.5102 4.89761L21.0053 0.392881C20.4867 -0.125752 19.6457 -0.125752 19.1271 0.392881L4.33732 15.1825C3.85893 15.661 3.76715 16.4907 4.33732 17.0608L29.6098 42.3333C30.0142 42.7379 30.9612 42.8602 31.4882 42.3333L44.9906 28.8311C45.3416 28.8614 45.7059 28.8777 46.0835 28.8777C49.5533 28.8777 52.6226 26.4974 54.3785 23.9031H66.6719C67.4055 23.9031 68.0001 23.3085 68.0001 22.575V5.83009C68.0001 5.09657 67.4055 4.50197 66.6719 4.50197ZM20.066 3.21023L23.0931 6.23729C22.1933 6.79378 21.153 7.09154 20.066 7.09154C18.979 7.09154 17.9388 6.79391 17.039 6.23729L20.066 3.21023ZM10.1819 19.1488L7.1548 16.1216L10.1819 13.0945C10.7383 13.9943 11.0361 15.0347 11.0361 16.1216C11.0361 17.2085 10.7385 18.2489 10.1819 19.1488ZM30.5491 39.5159L27.5225 36.4893C29.3703 35.349 31.7275 35.349 33.5755 36.4893L30.5491 39.5159ZM35.489 34.576C32.5541 32.447 28.544 32.447 25.6091 34.576L12.0953 21.0621C13.1324 19.6357 13.6924 17.9223 13.6924 16.1216C13.6924 14.3208 13.1326 12.6075 12.0953 11.1811L15.1257 8.15086C16.5521 9.18799 18.2654 9.74793 20.0662 9.74793C21.867 9.74793 23.5803 9.18799 25.0067 8.15086L27.8793 11.0235C27.2594 11.115 26.655 11.3192 26.0913 11.6333C25.1393 12.1638 24.3924 12.9581 23.9273 13.9192C22.4292 14.1966 21.0422 14.9219 19.9542 16.0098C17.0024 18.9617 17.0025 23.7646 19.9543 26.7164C21.4302 28.1923 23.3688 28.9303 25.3076 28.9303C27.2463 28.9303 29.1851 28.1924 30.661 26.7164C31.6213 25.7562 32.2939 24.576 32.6309 23.2899L37.1152 24.8118C36.6104 27.1503 37.1274 29.6106 38.5221 31.543L35.489 34.576ZM27.4143 21.5188C27.426 21.5231 27.4377 21.5273 27.4495 21.5313L30.1052 22.4327C29.9047 23.3378 29.4508 24.17 28.7828 24.8382C26.8666 26.7542 23.7487 26.7544 21.8327 24.8382C19.9165 22.9221 19.9165 19.8044 21.8327 17.8881C22.2949 17.4257 22.8404 17.0643 23.4347 16.8193C23.6799 18.8595 25.1489 20.6781 27.4143 21.5188ZM40.4358 29.6292C39.9231 28.7938 39.633 27.8403 39.5872 26.8672C40.2234 27.3271 41.0009 27.7778 41.9295 28.1354L40.4358 29.6292ZM52.4157 22.0454C51.1569 24.1091 48.7155 26.2212 46.0835 26.2212C45.591 26.2212 45.1295 26.1861 44.698 26.1237C44.6962 26.1234 44.6945 26.1232 44.6928 26.1229C41.8246 25.7063 40.2817 24.0761 39.7732 23.4307C39.7461 23.3908 39.6306 23.2398 39.6135 23.2147C39.4588 22.9382 39.2051 22.7159 38.8816 22.606L28.3219 19.0221C26.6368 18.3896 25.746 16.9466 26.1543 15.5075C26.1546 15.5065 26.1548 15.5056 26.1551 15.5047C26.1555 15.5036 26.1558 15.5024 26.156 15.5014C26.3458 14.8386 26.7817 14.2889 27.3841 13.9533C27.9826 13.6198 28.6744 13.5371 29.3342 13.7199L41.2333 17.4906C41.9327 17.7126 42.6791 17.325 42.9006 16.6258C43.1222 15.9265 42.735 15.1801 42.0357 14.9584L32.5722 11.9595L32.4896 11.8769C32.4888 11.8761 32.488 11.8752 32.4871 11.8744L27.5876 6.97494L31.7988 5.46698C31.813 5.4618 31.8306 5.45529 31.8446 5.44958C31.8482 5.44812 31.8551 5.44547 31.8586 5.44401C31.8767 5.4367 31.8945 5.429 31.9121 5.4209C34.7591 4.11243 37.4653 4.89562 38.526 5.30814C42.5347 7.11186 44.6743 8.34556 46.2375 9.24696C48.4109 10.5003 49.4581 11.1042 52.4157 11.3485V22.0454ZM57.4472 21.2466H55.0721V9.63304H57.4472V21.2466ZM65.3438 21.2466H60.1034V7.15822H65.3438V21.2466Z" fill="#70908B"/>
</g>
<defs>
<clipPath id="clip0_41_8481">
<rect width="68" height="68" fill="white"/>
</clipPath>
</defs>
</svg>
