<svg width="60" height="68" viewBox="0 0 60 68" fill="none" xmlns="http://www.w3.org/2000/svg">
<path d="M29.8832 0C13.4056 0 0 13.4056 0 29.8832C0 31.7093 0 45.8352 0 46.0865C0 49.3821 2.68112 52.0632 5.97664 52.0632H8.31151C9.1339 54.3818 11.3483 56.0476 13.9455 56.0476C17.241 56.0476 19.9221 53.3665 19.9221 50.071V33.8676C19.9221 30.5721 17.241 27.891 13.9455 27.891C11.3483 27.891 9.1339 29.5567 8.31151 31.8754H5.97664C5.27817 31.8754 4.60799 31.9969 3.98443 32.2181V29.8832C3.98443 15.6026 15.6026 3.98443 29.8832 3.98443C44.1638 3.98443 55.782 15.6026 55.782 29.8832V32.2181C55.1584 31.9969 54.4882 31.8754 53.7898 31.8754H51.4549C50.6325 29.5567 48.4181 27.891 45.8209 27.891C42.5254 27.891 39.8443 30.5721 39.8443 33.8676V50.071C39.8443 53.3665 42.5254 56.0476 45.8209 56.0476C46.424 56.0476 47.0063 55.957 47.5556 55.7901C46.8104 58.2421 44.5289 60.032 41.8365 60.032H35.5172C34.6948 57.7134 32.4804 56.0476 29.8832 56.0476C26.5877 56.0476 23.9066 58.7287 23.9066 62.0242C23.9066 65.3198 26.5877 68.0009 29.8832 68.0009C32.4804 68.0009 34.6948 66.3351 35.5172 64.0165H41.8365C47.329 64.0165 51.7975 59.5479 51.7975 54.0554V52.0632H53.7898C57.0853 52.0632 59.7664 49.3821 59.7664 46.0865C59.7664 45.839 59.7664 31.7078 59.7664 29.8832C59.7664 13.4056 46.3608 0 29.8832 0ZM11.9533 33.8676C11.9533 32.7691 12.847 31.8754 13.9455 31.8754C15.044 31.8754 15.9377 32.7691 15.9377 33.8676V50.071C15.9377 51.1695 15.044 52.0632 13.9455 52.0632C12.847 52.0632 11.9533 51.1695 11.9533 50.071V33.8676ZM5.97664 35.8598H7.96885V48.0787H5.97664C4.87813 48.0787 3.98443 47.185 3.98443 46.0865V37.8521C3.98443 36.7535 4.87813 35.8598 5.97664 35.8598ZM29.8832 64.0165C28.7847 64.0165 27.891 63.1227 27.891 62.0242C27.891 60.9257 28.7847 60.032 29.8832 60.032C30.9817 60.032 31.8754 60.9257 31.8754 62.0242C31.8754 63.1227 30.9817 64.0165 29.8832 64.0165ZM47.8131 50.071C47.8131 51.1695 46.9194 52.0632 45.8209 52.0632C44.7224 52.0632 43.8287 51.1695 43.8287 50.071V33.8676C43.8287 32.7691 44.7224 31.8754 45.8209 31.8754C46.9194 31.8754 47.8131 32.7691 47.8131 33.8676V50.071ZM55.782 46.0865C55.782 47.185 54.8883 48.0787 53.7898 48.0787H51.7975V35.8598H53.7898C54.8883 35.8598 55.782 36.7535 55.782 37.8521V46.0865Z" fill="#70908B"/>
</svg>
