<svg width="249" height="40" viewBox="0 0 249 40" fill="none" xmlns="http://www.w3.org/2000/svg">
<path d="M37.8637 13.7782L26.1338 11.9931L20.8902 0.861156C20.747 0.556371 20.5114 0.30964 20.2203 0.159667C19.4904 -0.217685 18.6034 0.096775 18.2384 0.861156L12.9948 11.9931L1.26486 13.7782C0.941464 13.8266 0.64579 13.9862 0.419415 14.2281C0.14574 14.5227 -0.00506761 14.919 0.000130031 15.3299C0.00532767 15.7409 0.166105 16.1328 0.447134 16.4197L8.9339 25.0843L6.92886 37.3192C6.88184 37.6038 6.91192 37.8965 7.01568 38.1642C7.11944 38.4318 7.29273 38.6636 7.5159 38.8333C7.73908 39.0031 8.0032 39.1039 8.27833 39.1245C8.55346 39.145 8.82858 39.0844 9.07249 38.9496L19.5643 33.1732L30.0561 38.9496C30.3425 39.1092 30.6752 39.1624 30.9939 39.1044C31.7978 38.9592 32.3383 38.161 32.1997 37.3192L30.1947 25.0843L38.6815 16.4197C38.9124 16.1826 39.0649 15.873 39.1111 15.5344C39.2358 14.6877 38.6722 13.904 37.8637 13.7782Z" fill="#FFC107"/>
<path d="M91.2203 13.7782L79.4904 11.9931L74.2468 0.861156C74.1036 0.556371 73.868 0.30964 73.5769 0.159667C72.847 -0.217685 71.9599 0.096775 71.595 0.861156L66.3514 11.9931L54.6214 13.7782C54.298 13.8266 54.0024 13.9862 53.776 14.2281C53.5023 14.5227 53.3515 14.919 53.3567 15.3299C53.3619 15.7409 53.5227 16.1328 53.8037 16.4197L62.2905 25.0843L60.2854 37.3192C60.2384 37.6038 60.2685 37.8965 60.3723 38.1642C60.476 38.4318 60.6493 38.6636 60.8725 38.8333C61.0957 39.0031 61.3598 39.1039 61.6349 39.1245C61.91 39.145 62.1852 39.0844 62.4291 38.9496L72.9209 33.1732L83.4127 38.9496C83.6991 39.1092 84.0317 39.1624 84.3505 39.1044C85.1544 38.9592 85.6949 38.161 85.5563 37.3192L83.5513 25.0843L92.038 16.4197C92.269 16.1826 92.4215 15.873 92.4677 15.5344C92.5924 14.6877 92.0288 13.904 91.2203 13.7782Z" fill="#FFC107"/>
<path d="M141.02 13.7782L129.29 11.9931L124.046 0.861156C123.903 0.556371 123.668 0.30964 123.377 0.159667C122.647 -0.217685 121.76 0.096775 121.395 0.861156L116.151 11.9931L104.421 13.7782C104.098 13.8266 103.802 13.9862 103.576 14.2281C103.302 14.5227 103.151 14.919 103.156 15.3299C103.162 15.7409 103.322 16.1328 103.603 16.4197L112.09 25.0843L110.085 37.3192C110.038 37.6038 110.068 37.8965 110.172 38.1642C110.276 38.4318 110.449 38.6636 110.672 38.8333C110.895 39.0031 111.159 39.1039 111.435 39.1245C111.71 39.145 111.985 39.0844 112.229 38.9496L122.72 33.1732L133.212 38.9496C133.499 39.1092 133.831 39.1624 134.15 39.1044C134.954 38.9592 135.495 38.161 135.356 37.3192L133.351 25.0843L141.838 16.4197C142.069 16.1826 142.221 15.873 142.267 15.5344C142.392 14.6877 141.828 13.904 141.02 13.7782Z" fill="#FFC107"/>
<path d="M194.377 13.7782L182.647 11.9931L177.403 0.861156C177.26 0.556371 177.024 0.30964 176.733 0.159667C176.003 -0.217685 175.116 0.096775 174.751 0.861156L169.508 11.9931L157.778 13.7782C157.454 13.8266 157.159 13.9862 156.932 14.2281C156.659 14.5227 156.508 14.919 156.513 15.3299C156.518 15.7409 156.679 16.1328 156.96 16.4197L165.447 25.0843L163.442 37.3192C163.395 37.6038 163.425 37.8965 163.528 38.1642C163.632 38.4318 163.806 38.6636 164.029 38.8333C164.252 39.0031 164.516 39.1039 164.791 39.1245C165.066 39.145 165.341 39.0844 165.585 38.9496L176.077 33.1732L186.569 38.9496C186.855 39.1092 187.188 39.1624 187.507 39.1044C188.311 38.9592 188.851 38.161 188.713 37.3192L186.707 25.0843L195.194 16.4197C195.425 16.1826 195.578 15.873 195.624 15.5344C195.749 14.6877 195.185 13.904 194.377 13.7782Z" fill="#FFC107"/>
<path d="M247.735 13.7782L236.005 11.9931L230.762 0.861156C230.618 0.556371 230.383 0.30964 230.092 0.159667C229.362 -0.217685 228.475 0.096775 228.11 0.861156L222.866 11.9931L211.136 13.7782C210.813 13.8266 210.517 13.9862 210.291 14.2281C210.017 14.5227 209.866 14.919 209.871 15.3299C209.877 15.7409 210.037 16.1328 210.318 16.4197L218.805 25.0843L216.8 37.3192C216.753 37.6038 216.783 37.8965 216.887 38.1642C216.991 38.4318 217.164 38.6636 217.387 38.8333C217.61 39.0031 217.875 39.1039 218.15 39.1245C218.425 39.145 218.7 39.0844 218.944 38.9496L229.436 33.1732L239.927 38.9496C240.214 39.1092 240.546 39.1624 240.865 39.1044C241.669 38.9592 242.21 38.161 242.071 37.3192L240.066 25.0843L248.553 16.4197C248.784 16.1826 248.936 15.873 248.982 15.5344C249.107 14.6877 248.544 13.904 247.735 13.7782Z" fill="#FFC107"/>
</svg>
